HIERARCHY
ROOT Hips
{
	OFFSET 0.000000 0.000000 0.000000
	CHANNELS 6 Xposition Yposition Zposition Zrotation Yrotation Xrotation 
	JOINT LHipJoint
	{
		OFFSET 0.000000 0.000000 0.000000
		CHANNELS 3 Zrotation Yrotation Xrotation
		JOINT LeftUpLeg
		{
			OFFSET 1.363060 -1.794630 0.839290
			CHANNELS 3 Zrotation Yrotation Xrotation
			JOINT LeftLeg
			{
				OFFSET 2.448110 -6.726130 0.000000
				CHANNELS 3 Zrotation Yrotation Xrotation
				JOINT LeftFoot
				{
					OFFSET 2.562200 -7.039590 0.000000
					CHANNELS 3 Zrotation Yrotation Xrotation
					JOINT LeftToeBase
					{
						OFFSET 0.157640 -0.433110 2.322550
						CHANNELS 3 Zrotation Yrotation Xrotation
						End Site
						{
							OFFSET 0.000000 0.000000 0.000000
						}
					}
				}
			}
		}
	}
	JOINT RHipJoint
	{
		OFFSET 0.000000 0.000000 0.000000
		CHANNELS 3 Zrotation Yrotation Xrotation
		JOINT RightUpLeg
		{
			OFFSET -1.305520 -1.794630 0.839290
			CHANNELS 3 Zrotation Yrotation Xrotation
			JOINT RightLeg
			{
				OFFSET -2.542530 -6.985550 0.000000
				CHANNELS 3 Zrotation Yrotation Xrotation
				JOINT RightFoot
				{
					OFFSET -2.568260 -7.056230 0.000000
					CHANNELS 3 Zrotation Yrotation Xrotation
					JOINT RightToeBase
					{
						OFFSET -0.164730 -0.452590 2.363150
						CHANNELS 3 Zrotation Yrotation Xrotation
						End Site
						{
							OFFSET 0.000000 0.000000 0.000000
						}
					}
				}
			}
		}
	}
}
MOTION
Frames: 27
Frame Time: 0.008333
-1.873534 16.886951 -1.046385 -152.015344 81.368489 -144.876368 -9.902450 1.855575 3.363022 -21.211724 7.271684 -30.264498 -3.300940 -1.104194 10.262564 1.122233 4.096615 -9.769122 -0.158700 0.000000 -5.421500 8.892152 -5.510530 0.040615 10.847366 -16.175051 0.633671 2.586938 -2.031048 27.075858 1.339686 15.814841 3.909758 2.410400 0.000000 -69.359800
-1.723648 16.894218 -1.072504 -155.252923 81.023517 -148.137688 -9.834600 1.982050 3.508878 -21.356226 6.583560 -29.709989 -3.286223 -1.038960 10.632022 1.091510 4.026029 -9.475949 -0.124200 0.000000 -3.655400 9.183773 -5.527934 -0.083479 9.851174 -17.110617 -0.579446 2.287366 -2.244608 29.778413 1.310642 17.066380 5.701897 3.098200 0.000000 -72.107700
-1.578057 16.901718 -1.101002 -158.186047 80.629288 -151.080636 -9.765525 2.094774 3.645557 -21.496145 5.880802 -29.130877 -3.269947 -0.980011 10.955138 1.065458 3.969891 -9.214827 -0.094400 -0.000000 -1.934800 9.459719 -5.512190 -0.207944 8.933812 -17.904500 -1.832345 1.979891 -2.435705 32.503613 1.244980 18.030574 7.446095 3.805201 -0.000000 -74.446000
-1.437095 16.909002 -1.131774 -160.805470 80.198768 -153.701289 -9.696024 2.191520 3.767248 -21.633370 5.180903 -28.511307 -3.252338 -0.929394 11.220922 1.046312 3.939766 -8.998768 -0.070799 -0.000001 -0.282800 9.715815 -5.463768 -0.333385 8.098717 -18.537950 -3.104267 1.673994 -2.606508 35.227511 1.152815 18.629254 9.046386 4.455400 -0.000000 -76.333301
-1.300967 16.915779 -1.165288 -163.004126 79.742658 -155.892410 -9.633758 2.270020 3.866941 -21.752371 4.527120 -27.873994 -3.234135 -0.886068 11.449870 1.031461 3.913003 -8.849900 179.944300 0.000000 -1.284300 9.940522 -5.387910 -0.451861 7.383613 -18.972709 -4.381728 1.378088 -2.760288 37.918168 1.044884 18.777525 10.413938 4.960200 -0.000000 -77.733701
-1.169620 16.921950 -1.201573 -164.789216 79.278486 -157.663557 -9.581676 2.330522 3.940128 -21.851174 3.946146 -27.222201 -3.216454 -0.850724 11.639616 1.019843 3.881877 -8.775515 179.950099 0.000001 -2.741000 10.131757 -5.289035 -0.559660 6.789670 -19.198820 -5.657639 1.096359 -2.900779 40.555068 0.929541 18.440687 11.476238 5.248001 -0.000000 -78.626700
-1.042826 16.927588 -1.241019 -166.117735 78.820816 -158.968570 -9.545835 2.374225 3.983739 -21.916695 3.473837 -26.585114 -3.200429 -0.822095 11.808128 1.007684 3.819270 -8.785946 179.945500 0.000000 -4.075600 10.285097 -5.173439 -0.648112 6.336773 -19.200977 -6.934156 0.831032 -3.030214 43.114059 0.811763 17.607320 12.180962 5.272400 -0.000001 -78.987401
-0.920268 16.932851 -1.283322 -167.075171 78.384944 -159.894174 -9.525057 2.403774 3.997818 -21.955752 3.117205 -25.959322 -3.187351 -0.801309 11.941585 0.994420 3.725314 -8.871422 179.931900 0.000000 -5.266100 10.405990 -5.043570 -0.715084 5.999990 -18.990453 -8.211321 0.582504 -3.149903 45.576016 0.692577 16.324617 12.501614 5.032700 -0.000000 -78.802300
-0.801472 16.938031 -1.328398 -167.712679 77.980252 -160.489077 -9.519243 2.421807 3.984307 -21.970085 2.880939 -25.354380 -3.178203 -0.788350 12.036712 0.978512 3.593406 -9.020874 179.911401 -0.000000 -6.295200 10.498026 -4.901925 -0.756299 5.764144 -18.575679 -9.491319 0.351511 -3.259548 47.916033 0.570711 14.665416 12.437121 4.563900 0.000000 -78.064200
-0.685942 16.943398 -1.376132 -168.078750 77.611024 -160.797993 -9.527726 2.430867 3.946869 -21.961044 2.761065 -24.780978 -3.173481 -0.782771 12.092690 0.958711 3.419494 -9.219509 179.886400 -0.000001 -7.151100 10.564890 -4.750124 -0.767662 5.612681 -17.967308 -10.776407 0.139256 -3.357757 50.106520 0.443795 12.725435 12.010755 3.928500 0.000000 -76.783000
-0.573174 16.949236 -1.426282 -168.228561 77.276865 -160.872010 -9.548909 2.433193 3.890360 -21.931390 2.742645 -24.244754 -3.173144 -0.783907 12.107291 0.934282 3.204610 -9.446952 179.860300 0.000000 -7.812200 10.610551 -4.588832 -0.746588 5.524907 -17.179545 -12.065911 -0.052526 -3.442748 52.119194 0.309747 10.613250 11.264800 3.201400 0.000000 -74.953500
-0.462782 16.955699 -1.478510 -168.250305 76.974616 -160.800117 -9.578225 2.430404 3.820845 -21.891902 2.794241 -23.731744 -3.176701 -0.792208 12.065886 0.906872 2.965740 -9.681885 179.835800 -0.000000 -8.315200 10.641046 -4.417339 -0.694340 5.462855 -16.238893 -13.352381 -0.222029 -3.513281 53.927041 0.167841 8.446091 10.263486 2.459900 -0.000000 -72.692900
-0.354281 16.962972 -1.532811 -168.142131 76.693796 -160.573183 -9.616798 2.423892 3.744189 -21.834615 2.897929 -23.260262 -3.182786 -0.805171 11.985642 0.875144 2.697921 -9.909728 179.815100 0.000000 -8.641400 10.655873 -4.237346 -0.607388 5.425898 -15.155031 -14.636918 -0.367693 -3.567293 55.505559 0.019036 6.312054 9.071736 1.760800 0.000000 -69.996800
-0.247401 16.971018 -1.588930 -167.959899 76.424089 -160.247201 -9.661759 2.414306 3.666538 -21.763641 3.017716 -22.818372 -3.189752 -0.822247 11.862064 0.840775 2.417434 -10.113640 179.799800 -0.000000 -8.822100 10.657982 -4.048819 -0.488565 5.388489 -13.955163 -15.911684 -0.488548 -3.604253 56.836479 -0.133830 4.293409 7.761351 1.146700 0.000000 -66.959500
-0.141949 16.979740 -1.646594 -167.742267 76.152366 -159.862094 -9.711450 2.401950 3.592708 -21.679434 3.122959 -22.395532 -3.195766 -0.842398 11.696991 0.805025 2.136448 -10.282606 179.790300 0.000000 -8.889100 10.648636 -3.852448 -0.341188 5.333725 -12.664742 -17.167904 -0.584437 -3.624134 57.906711 -0.286946 2.444780 6.398860 0.638600 -0.000000 -63.679000
-0.037745 16.988914 -1.705599 -167.517271 75.865313 -159.446984 -9.764885 2.386884 3.527106 -21.580551 3.185243 -21.981911 -3.198897 -0.864627 11.494249 0.769242 1.866257 -10.410813 179.786200 0.000000 -8.879000 10.628058 -3.649252 -0.169599 5.250994 -11.310355 -18.399222 -0.655943 -3.627446 58.711196 -0.436357 0.795457 5.038988 0.239900 -0.000001 -60.236900
0.065162 16.998272 -1.765550 -167.326999 75.549354 -159.051446 -9.820264 2.368703 3.470955 -21.469468 3.182221 -21.555388 -3.197660 -0.888329 11.252704 0.734718 1.617853 -10.494750 179.786700 -0.000000 -8.830800 10.597358 -3.440265 0.018415 5.125608 -9.924020 -19.591985 -0.704175 -3.615928 59.250410 -0.578894 -0.646430 3.723517 -0.058100 0.000000 -56.722900
0.166898 17.007483 -1.826553 -167.164597 75.193848 -158.665915 -9.878356 2.347463 3.429014 -21.339703 3.096931 -21.119709 -3.190576 -0.912888 10.981932 0.702497 1.395929 -10.541425 179.790300 -0.000000 -8.783900 10.554473 -3.227330 0.220834 4.965699 -8.524120 -20.751707 -0.731349 -3.589814 59.531344 -0.713792 -1.899611 2.487361 -0.272500 0.000000 -53.277300
0.267407 17.016247 -1.888242 -167.058459 74.789424 -158.325954 -9.937971 2.322892 3.400428 -21.193679 2.922462 -20.658045 -3.177235 -0.938067 10.682291 0.673151 1.203839 -10.555486 179.795900 -0.000001 -8.767700 10.500030 -3.011779 0.430302 4.766113 -7.137882 -21.869844 -0.739582 -3.551070 59.565201 -0.841396 -2.989862 1.347407 -0.421700 -0.000000 -49.970500
0.366648 17.024282 -1.950383 -167.018812 74.329902 -158.046601 -9.998525 2.294989 3.384653 -21.033172 2.658739 -20.162281 -3.157702 -0.963860 10.355288 0.646937 1.041387 -10.544431 179.802500 -0.000000 -8.803400 10.434079 -2.795161 0.641606 4.528875 -5.786619 -22.944165 -0.731373 -3.501162 59.366608 -0.963742 -3.952153 0.313091 -0.523500 0.000001 -46.886700
0.464693 17.031394 -2.012979 -167.033971 73.812869 -157.816198 -10.060887 2.264126 3.381827 -20.856066 2.312926 -19.637171 -3.132447 -0.990241 10.006388 0.623505 0.902400 -10.519430 179.809200 0.000000 -8.900300 10.355376 -2.579217 0.852849 4.265367 -4.481652 -23.979301 -0.709315 -3.440551 58.950629 -1.083985 -4.824661 -0.612980 -0.593500 -0.000000 -44.086101
0.561451 17.037462 -2.075428 -167.138706 73.237390 -157.678485 -10.121732 2.230714 3.387851 -20.675536 1.895563 -19.066327 -3.103236 -1.017735 9.629233 0.602473 0.784383 -10.482181 179.815900 -0.000000 -9.054400 10.267302 -2.365121 1.057513 3.967182 -3.246193 -24.967950 -0.675339 -3.371653 58.334081 -1.204249 -5.632367 -1.439012 -0.642100 0.000000 -41.603101
0.657099 17.042481 -2.137800 -167.307545 72.606937 -157.604970 -10.182277 2.195811 3.402660 -20.490588 1.422979 -18.464131 -3.071336 -1.046354 9.230123 0.582751 0.676252 -10.441715 179.822300 -0.000000 -9.253000 10.168827 -2.154708 1.257038 3.648227 -2.081998 -25.918688 -0.631396 -3.294215 57.531063 -1.326924 -6.399061 -2.172940 -0.677800 0.000000 -39.433700
0.751763 17.046510 -2.199863 -167.539957 71.926469 -157.596280 -10.241370 2.160472 3.424908 -20.307673 0.909601 -17.834721 -3.038406 -1.076413 8.808817 0.563519 0.571499 -10.400021 179.828600 -0.000000 -9.475699 10.061451 -1.949614 1.451174 3.311695 -0.995299 -26.833536 -0.578715 -3.208858 56.554504 -1.452504 -7.132376 -2.827265 -0.705100 -0.000000 -37.549700
0.845674 17.049723 -2.261449 -167.830624 71.202208 -157.645766 -10.298234 2.126204 3.453106 -20.132976 0.372994 -17.187646 -3.006340 -1.107797 8.369137 0.543401 0.460090 -10.357241 179.835000 -0.000000 -9.699200 9.946682 -1.751464 1.641127 2.961543 0.011500 -27.716157 -0.518080 -3.115847 55.415258 -1.579954 -7.828852 -3.413153 -0.726600 0.000000 -35.913400
0.938911 17.052280 -2.323017 -168.131698 70.443619 -157.703966 -10.357306 2.093784 3.487373 -19.954757 -0.169889 -16.540418 -2.974806 -1.139906 7.917432 0.521317 0.332887 -10.316881 179.842000 -0.000000 -9.899300 9.821357 -1.562793 1.831082 2.617934 0.953232 -28.566657 -0.449908 -3.013356 54.113317 -1.707650 -8.482318 -3.932501 -0.745300 -0.000000 -34.494900
1.031792 17.054416 -2.383948 -168.469652 69.656599 -157.797295 -10.414346 2.064954 3.526072 -19.788348 -0.709834 -15.894589 -2.946022 -1.172495 7.456642 0.496467 0.186459 -10.271131 179.849999 -0.000000 -10.059800 9.690474 -1.384905 2.020787 2.272653 1.821209 -29.385934 -0.374336 -2.902790 52.660426 -1.830933 -9.068182 -4.391500 -0.761300 -0.000000 -33.274100
